<svg xmlns="http://www.w3.org/2000/svg" xmlns:xlink="http://www.w3.org/1999/xlink" width="20" height="20" viewBox="0 0 20 20" fill="none">
    <path d="M18.75 17.3105L17.3106 18.75L14.3828 15.8223C10.832 18.5801 5.7168 17.9355 2.96094 14.3828C0.205083 10.8301 0.847661 5.7168 4.39844 2.96094C7.94922 0.205077 13.0645 0.847655 15.8203 4.40039C18.0996 7.33789 18.0996 11.4473 15.8203 14.3848L18.75 17.3105ZM14.0723 4.71875C11.4883 2.13672 7.30079 2.13672 4.71875 4.71875C2.13672 7.30273 2.13672 11.4902 4.71875 14.0723C7.30274 16.6543 11.4902 16.6543 14.0723 14.0723C16.6543 11.4883 16.6523 7.30078 14.0703 4.71875L14.0723 4.71875Z" fill-rule="evenodd"  fill="#333333" >
    </path>
</svg>
